<?xml version="1.0" encoding="utf-8"?>
<!-- Generator: Adobe Illustrator 19.0.0, SVG Export Plug-In . SVG Version: 6.00 Build 0)  -->
<svg version="1.1" id="Layer_1" xmlns="http://www.w3.org/2000/svg" xmlns:xlink="http://www.w3.org/1999/xlink" x="0px" y="0px"
	 viewBox="-55 339.7 500 114.3" style="enable-background:new -55 339.7 500 114.3;" xml:space="preserve">
<style type="text/css">
	.st0{fill:#BF1515;}
	.st1{fill:#000000;}
</style>
<g id="XMLID_49_">
	<path id="XMLID_2_" class="st0" d="M-40.5,342.8L-55,400.4l13.2,18.3h74.5l18.5-75.9H30.1l-13.8,57.6h-48.2l14.5-57.6H-40.5z"/>
	<g id="XMLID_45_">
		<g id="XMLID_331_">
			<g id="XMLID_353_">
				<path id="XMLID_368_" class="st1" d="M152.6,437.7c0-9.1,6.7-15.5,15.5-15.5s15.5,6.5,15.5,15.5s-6.7,15.5-15.5,15.5
					S152.6,446.8,152.6,437.7z M177,437.7c0-5.7-3.9-9.5-9-9.5s-9,3.8-9,9.5s3.9,9.5,9,9.5S177,443.4,177,437.7z"/>
				<path id="XMLID_366_" class="st1" d="M226.6,434.9v14c-3.3,2.7-8,4.4-12.8,4.4c-9.4,0-15.9-6.4-15.9-15.4
					c0-9.1,6.8-15.6,15.6-15.6c5,0,9.5,2.1,12.4,6l-5.4,3.5c-1.7-2.2-4.2-3.4-7-3.4c-5.1,0-9,3.8-9,9.5s3.7,9.4,9.6,9.4
					c2.4,0,4.8-0.6,6.7-1.7v-5.1h-6.4v-5.6L226.6,434.9L226.6,434.9z"/>
				<path id="XMLID_364_" class="st1" d="M243.1,422.7h6.3v30h-6.3V422.7z"/>
				<path id="XMLID_362_" class="st1" d="M264.6,449.2l3.6-5c3.2,2.3,6,3.2,8.7,3.2c3.3,0,5-1.5,5-3.4c0-1.5-1.1-2.7-4.3-3.4
					l-4.7-1.1c-5-1.2-7.6-3.9-7.6-8.1c0-5.4,4.4-9.2,11.3-9.2c4.2,0,8.2,1.4,11.2,4.2l-4.1,4.4c-2.4-2.1-4.8-2.9-7.3-2.9
					c-3.2,0-4.8,1.3-4.8,3.1c0,1.4,0.9,2.4,4.4,3.2l4.7,1.1c5.2,1.2,7.6,3.9,7.6,8.2c0,5.8-4.3,9.7-11.6,9.7
					C272.2,453.2,267.8,451.8,264.6,449.2z"/>
				<path id="XMLID_360_" class="st1" d="M325.8,428.7h-9.1v24h-6.3v-24h-9.1v-6h24.5V428.7z"/>
				<path id="XMLID_358_" class="st1" d="M340.8,422.7h6.3v30h-6.3V422.7z"/>
				<path id="XMLID_356_" class="st1" d="M362.9,437.8c0-9.1,6.7-15.6,15.6-15.6c5.7,0,10.8,2.7,13.5,7.8l-5.6,3.3
					c-1.5-3.2-4.5-5-8-5c-5.1,0-9,3.8-9,9.5s3.9,9.5,9,9.5c3.5,0,6.5-1.8,8-5l5.6,3.2c-2.7,5-7.8,7.8-13.6,7.8
					C369.5,453.2,362.9,446.8,362.9,437.8z"/>
				<path id="XMLID_354_" class="st1" d="M405.3,449.2l3.6-5c3.2,2.3,6,3.2,8.7,3.2c3.3,0,5-1.5,5-3.4c0-1.5-1.1-2.7-4.3-3.4
					l-4.7-1.1c-5-1.2-7.6-3.9-7.6-8.1c0-5.4,4.4-9.2,11.3-9.2c4.2,0,8.2,1.4,11.2,4.2l-4.1,4.4c-2.4-2.1-4.8-2.9-7.3-2.9
					c-3.2,0-4.8,1.3-4.8,3.1c0,1.4,0.9,2.4,4.4,3.2l4.7,1.1c5.2,1.2,7.6,3.9,7.6,8.2c0,5.8-4.3,9.7-11.6,9.7
					C412.9,453.2,408.5,451.8,405.3,449.2z"/>
			</g>
			<g id="XMLID_332_">
				<g id="XMLID_350_">
					<path id="XMLID_351_" class="st1" d="M364.7,393.5c0.4-1.7,1-3.5,2-5.5c0.9-2,2.1-4,3.4-6s2.8-4,4.4-6s3.3-3.8,5-5.5h-10
						c1.4-3.2,3.3-6.4,5.8-9.7c2.5-3.3,5.2-6.3,8.3-9c3.1-2.7,6.3-4.9,9.8-6.7c3.5-1.7,7-2.6,10.4-2.6H445l-3,13h-38.6
						c-0.5,0.2-1.1,0.4-1.8,0.8c-0.7,0.4-1.4,0.9-2.2,1.4c-0.7,0.6-1.4,1.2-2,1.8s-1.1,1.3-1.5,1.9h40l-3,13.2H397
						c-2.1,1-4.3,2.9-6.5,5.7h47.3l-3,13.1h-70.1L364.7,393.5L364.7,393.5z"/>
				</g>
				<g id="XMLID_346_">
					<path id="XMLID_347_" class="st1" d="M365.6,342.4l-9.3,40.3c-0.6,1.3-1.4,2.5-2.6,3.8c-1.1,1.3-2.4,2.4-3.9,3.5
						c-1.5,1-3,1.9-4.6,2.5s-3.1,1-4.5,1H287l11.8-51L365.6,342.4L365.6,342.4L365.6,342.4z M336.1,380.3c1.4-0.6,2.6-1.2,3.4-1.9
						c0.8-0.7,1.6-1.6,2.2-2.7l4.7-20.1H312l-5.7,24.8L336.1,380.3L336.1,380.3L336.1,380.3z"/>
				</g>
				<g id="XMLID_342_">
					<path id="XMLID_343_" class="st1" d="M228.1,353.7c0.7-1.5,1.8-3,3.1-4.4c1.4-1.4,2.8-2.6,4.3-3.6s3-1.9,4.4-2.5
						c1.5-0.6,2.7-0.9,3.7-0.9h47.7l-10.9,51.2h-16.5l2.6-12.4h-27.9l-2.6,12.4h-16.5L228.1,353.7z M245.4,357.4
						c-0.9,0.6-1.6,1.6-2.3,2.9l-1.6,7.7h27.9l2.6-12.4h-22.2C247.7,356.1,246.3,356.8,245.4,357.4z"/>
				</g>
				<g id="XMLID_339_">
					<path id="XMLID_340_" class="st1" d="M153,342.4h41.9c3.3,0,6.3,0.8,9.2,2.4c2.8,1.6,5.3,3.7,7.4,6.3s3.8,5.4,5,8.5
						s1.8,6.1,1.9,9.1l-0.8,5.2h-6.9c1.6,3,2.7,6.3,3.5,9.8s0.9,6.7,0.5,9.7H197c-0.2-4.1-0.5-7-0.8-8.9c-0.3-2-0.6-3.3-0.9-3.8
						c-0.7-1.4-1.7-2.8-3-4s-2.5-1.9-3.5-2.1h-20.3l2-13.2h26c-0.4-1.6-1.1-2.9-2.1-3.9s-1.9-1.7-2.7-2.1h-24.1l-5.8,38h-16.4
						L153,342.4z"/>
				</g>
				<g id="XMLID_336_">
					<path id="XMLID_337_" class="st1" d="M108.4,418.6l13.1-58c0-1.2-0.4-2.2-1.1-3.1s-1.8-1.3-3.4-1.3H64.1L64,340h66.3
						c2.4,0,4.5,0.6,6.3,1.7s3.2,2.6,4.3,4.4s1.7,3.7,2,5.8s0.1,4.1-0.4,6l-14,60.7C128.5,418.6,108.4,418.6,108.4,418.6z"/>
				</g>
				<g id="XMLID_333_">
					<path id="XMLID_334_" class="st1" d="M98.7,375.2l-13.1,58c0,1.2,0.4,2.2,1.1,3.1s1.8,1.3,3.4,1.3H143l0.2,16.1H76.9
						c-2.4,0-4.5-0.6-6.3-1.7s-3.2-2.6-4.3-4.4c-1.1-1.8-1.7-3.7-2-5.8c-0.3-2.1-0.1-4.1,0.4-6l14-60.7h20V375.2z"/>
				</g>
			</g>
		</g>
	</g>
</g>
</svg>
